<?xml version="1.0"?>
<svg xmlns="http://www.w3.org/2000/svg" xmlns:xlink="http://www.w3.org/1999/xlink" version="1.1" viewBox="0 0 192 192" width="50px" height="50px"><g fill="none" fill-rule="nonzero" stroke="none" stroke-width="1" stroke-linecap="butt" stroke-linejoin="miter" stroke-miterlimit="10" stroke-dasharray="" stroke-dashoffset="0" font-family="none" font-weight="none" font-size="none" text-anchor="none" style="mix-blend-mode: normal"><path d="M0,192v-192h192v192z" fill="none"/><g fill="#ffffff"><path d="M96,11.52c-46.61153,0 -84.48,37.86847 -84.48,84.48c0,46.61153 37.86847,84.48 84.48,84.48c46.61153,0 84.48,-37.86847 84.48,-84.48c0,-46.61153 -37.86847,-84.48 -84.48,-84.48zM96,19.2c42.46095,0 76.8,34.33905 76.8,76.8c0,42.46095 -34.33905,76.8 -76.8,76.8c-42.46095,0 -76.8,-34.33905 -76.8,-76.8c0,-42.46095 34.33905,-76.8 76.8,-76.8zM65.2425,61.4025c-1.56258,0.00041 -2.96912,0.94754 -3.55711,2.39528c-0.58799,1.44774 -0.24018,3.10738 0.87961,4.19722l28.005,28.005l-28.005,28.005c-1.00316,0.96314 -1.40727,2.39335 -1.05646,3.73904c0.35081,1.3457 1.40171,2.3966 2.74741,2.74741c1.3457,0.35081 2.77591,-0.05329 3.73904,-1.05646l28.005,-28.005l28.005,28.005c0.96314,1.00316 2.39335,1.40727 3.73904,1.05646c1.3457,-0.35081 2.3966,-1.40171 2.74741,-2.74741c0.35081,-1.3457 -0.05329,-2.77591 -1.05646,-3.73904l-28.005,-28.005l28.005,-28.005c1.13572,-1.10397 1.47721,-2.79193 0.85991,-4.25055c-0.6173,-1.45861 -2.06674,-2.38864 -3.64991,-2.34196c-0.99763,0.02973 -1.94449,0.44667 -2.64,1.1625l-28.005,28.005l-28.005,-28.005c-0.72296,-0.74317 -1.71569,-1.16244 -2.7525,-1.1625z"/></g></g></svg>
